<svg width="42" height="42" viewBox="0 0 42 42" fill="none" xmlns="http://www.w3.org/2000/svg">
<g clip-path="url(#clip0_14_37)">
<path d="M40.81 25.94C38.08 36.88 27 43.54 16.06 40.81C5.12 38.08 -1.54 27 1.19 16.06C3.92 5.12 15 -1.54 25.94 1.19C36.88 3.92 43.54 15 40.81 25.94Z" fill="#F7931A"/>
<path d="M30.01 18.09C30.42 15.37 28.35 13.91 25.52 12.94L26.44 9.26L24.2 8.7L23.3 12.28C22.71 12.13 22.11 11.99 21.51 11.86L22.41 8.25L20.17 7.69L19.25 11.37L14.73 10.25L14.13 12.64C14.13 12.64 15.79 13.02 15.76 13.04C16.67 13.27 16.83 13.87 16.8 14.34L14.29 24.42C14.18 24.7 13.9 25.11 13.26 24.95C13.28 24.98 11.63 24.54 11.63 24.54L10.52 27.11L15.03 28.25L14.1 31.97L16.34 32.53L17.26 28.85C17.87 29.02 18.46 29.17 19.05 29.31L18.13 32.98L20.37 33.54L21.3 29.82C25.12 30.54 28 30.25 29.2 26.8C30.17 24.02 29.15 22.41 27.14 21.37C28.6 21.03 29.71 20.07 30 18.08M24.88 25.26C24.19 28.04 19.5 26.54 17.98 26.16L19.21 21.23C20.73 21.61 25.6 22.36 24.88 25.26ZM25.57 18.04C24.94 20.57 21.04 19.29 19.77 18.97L20.88 14.49C22.15 14.81 26.22 15.39 25.56 18.03" fill="white"/>
</g>
<defs>
<clipPath id="clip0_14_37">
<rect width="42" height="42" fill="white"/>
</clipPath>
</defs>
</svg>
