<svg width="50" height="50" viewBox="0 0 50 50" fill="none" xmlns="http://www.w3.org/2000/svg">
<path d="M17.9766 28.235C18.0166 27.795 18.0666 27.515 18.0666 27.235C18.0666 22.605 18.0666 17.975 18.0666 13.345C18.0666 11.785 18.5766 10.425 19.9966 9.595C21.6866 8.615 23.8466 9.195 24.7366 11.145C25.0566 11.835 25.1766 12.665 25.2066 13.435C25.2766 15.275 25.2266 17.125 25.2266 18.965C25.2266 19.775 25.2666 19.805 26.0666 19.675C28.1666 19.345 29.4566 20.265 30.2266 22.165C30.3466 22.455 30.4266 22.615 30.7666 22.485C33.1466 21.585 34.8066 23.015 35.4166 24.725C35.5666 25.145 35.7466 25.195 36.1266 25.045C37.9266 24.305 40.1166 25.445 40.6566 27.355C41.1166 28.985 40.9566 30.635 40.8366 32.275C40.6866 34.345 40.3266 36.395 39.6566 38.365C38.8866 40.625 37.9866 42.805 36.0966 44.415C35.9066 44.585 35.7766 44.915 35.7666 45.185C35.7166 45.885 35.7666 46.595 35.7466 47.305C35.7266 48.585 34.9266 49.405 33.6566 49.405C29.1766 49.405 24.6966 49.405 20.2166 49.405C18.8966 49.405 18.0366 48.645 18.1366 47.345C18.2766 45.655 17.8466 44.415 16.5166 43.225C14.9366 41.815 14.0066 39.825 13.2166 37.855C12.1866 35.285 11.2666 32.665 10.3566 30.045C9.97657 28.935 9.71657 27.785 9.44657 26.645C9.12657 25.315 10.3666 23.725 11.7766 23.555C13.0766 23.395 14.1766 23.845 15.0366 24.725C15.9666 25.685 16.7566 26.785 17.6066 27.825C17.6866 27.915 17.7666 28.005 17.9766 28.235V28.235ZM20.0266 23.345C20.0266 26.695 20.0266 30.035 20.0266 33.385C20.0266 33.935 19.9366 34.435 19.2666 34.545C18.6466 34.645 18.2666 34.355 18.0666 33.655C17.4166 31.415 16.3866 29.355 14.9366 27.535C14.3466 26.795 13.5566 26.205 12.7966 25.635C12.5866 25.475 12.0666 25.515 11.8166 25.675C11.5966 25.815 11.4666 26.245 11.4766 26.535C11.4966 26.975 11.6666 27.405 11.7866 27.835C12.6966 31.285 13.8366 34.665 15.4066 37.875C16.2366 39.565 17.0566 41.345 18.5866 42.475C19.8266 43.395 20.2266 44.465 20.0666 45.885C20.0466 46.055 20.0666 46.225 20.0666 46.395C20.0666 47.345 20.1566 47.435 21.0866 47.435C24.9466 47.435 28.8066 47.435 32.6666 47.435C33.6966 47.435 33.7466 47.375 33.7466 46.335C33.7466 46.225 33.7466 46.115 33.7466 46.015C33.5966 44.565 33.8266 43.285 35.2266 42.475C35.4166 42.365 35.5666 42.155 35.7066 41.965C36.8766 40.405 37.6366 38.625 38.0666 36.745C38.4666 34.955 38.7366 33.135 38.9066 31.305C39.0066 30.195 38.8966 29.045 38.7366 27.935C38.6466 27.305 38.1366 26.845 37.4466 26.765C36.7766 26.685 36.2566 27.065 36.0766 27.625C35.8466 28.335 35.8166 29.115 35.7466 29.865C35.6866 30.605 35.3566 31.035 34.7566 31.045C34.1066 31.065 33.7866 30.725 33.7666 29.915C33.7366 28.845 33.7666 27.775 33.7466 26.695C33.7366 26.245 33.6866 25.795 33.5566 25.365C33.3666 24.735 32.9466 24.275 32.2666 24.165C31.6066 24.065 31.1266 24.415 30.8666 24.975C30.6566 25.425 30.5566 25.945 30.5066 26.445C30.4466 27.085 30.5166 27.735 30.4666 28.375C30.4266 28.875 30.1866 29.275 29.6166 29.345C28.9966 29.415 28.7066 29.045 28.5466 28.535C28.4766 28.295 28.4866 28.025 28.4866 27.775C28.4766 26.255 28.4966 24.725 28.4466 23.205C28.4166 22.345 27.6966 21.605 26.9966 21.555C26.2266 21.505 25.5666 22.075 25.3866 23.005C25.2966 23.445 25.2566 23.895 25.2466 24.345C25.2266 25.695 25.2466 27.045 25.2166 28.395C25.2066 28.945 24.9266 29.335 24.3066 29.345C23.7966 29.345 23.3366 28.945 23.2666 28.395C23.2466 28.225 23.2566 28.055 23.2566 27.885C23.2566 23.125 23.2566 18.365 23.2566 13.605C23.2566 13.265 23.2566 12.915 23.2166 12.575C23.1166 11.815 22.4666 11.175 21.7966 11.135C21.0666 11.085 20.4166 11.565 20.2166 12.355C20.1066 12.785 20.0366 13.235 20.0366 13.685C20.0266 16.905 20.0366 20.115 20.0366 23.335L20.0266 23.345Z" fill="white"/>
<path d="M17.4565 8.105C17.3065 8.335 17.1665 8.755 16.9365 8.825C16.5965 8.935 16.0465 8.925 15.8065 8.725C14.7265 7.755 13.7165 6.705 12.7165 5.655C12.3765 5.305 12.4365 4.605 12.7865 4.315C13.1965 3.965 13.7065 3.935 14.0765 4.275C15.1565 5.285 16.1865 6.335 17.2065 7.395C17.3365 7.535 17.3565 7.785 17.4665 8.105H17.4565Z" fill="white"/>
<path d="M31.0766 4.965C30.8366 5.345 30.7066 5.665 30.4766 5.895C29.5866 6.815 28.6766 7.715 27.7566 8.615C27.3366 9.025 26.6566 9.075 26.3066 8.745C25.9066 8.375 25.9066 7.715 26.3566 7.255C27.2966 6.285 28.2166 5.305 29.2166 4.405C29.4766 4.175 30.0166 4.105 30.3766 4.185C30.6366 4.245 30.8166 4.665 31.0766 4.965Z" fill="white"/>
<path d="M12.1766 12.295C12.8166 12.295 13.4566 12.285 14.1066 12.295C14.8066 12.315 15.2366 12.695 15.2366 13.265C15.2366 13.845 14.8966 14.215 14.1966 14.235C12.8266 14.265 11.4566 14.265 10.0866 14.235C9.42656 14.225 9.01656 13.795 9.03656 13.265C9.05656 12.725 9.49656 12.325 10.1266 12.305C10.8066 12.285 11.4966 12.305 12.1866 12.305L12.1766 12.295Z" fill="white"/>
<path d="M20.7066 3.705C20.7066 3.065 20.6966 2.425 20.7066 1.775C20.7266 1.075 21.1466 0.594997 21.7066 0.594997C22.2666 0.594997 22.6366 1.005 22.6566 1.745C22.6866 3.055 22.6866 4.355 22.6566 5.665C22.6466 6.425 22.2966 6.785 21.6966 6.785C21.0766 6.785 20.7066 6.375 20.6966 5.625C20.6866 4.985 20.6966 4.345 20.6966 3.695L20.7066 3.705Z" fill="white"/>
<path d="M31.2566 12.295C31.9166 12.295 32.5866 12.275 33.2466 12.295C33.9366 12.315 34.3666 12.725 34.3566 13.295C34.3566 13.855 33.9666 14.225 33.2666 14.235C31.9166 14.265 30.5666 14.255 29.2166 14.235C28.5666 14.225 28.1366 13.815 28.1166 13.295C28.0966 12.785 28.5966 12.325 29.2466 12.305C29.9066 12.285 30.5766 12.305 31.2366 12.305L31.2566 12.295Z" fill="white"/>
</svg>
