<svg width="64" height="64" viewBox="0 0 64 64" fill="none" xmlns="http://www.w3.org/2000/svg">
<g clip-path="url(#clip0_14_28)">
<path d="M32 63.5C49.397 63.5 63.5 49.397 63.5 32C63.5 14.603 49.397 0.5 32 0.5C14.603 0.5 0.5 14.603 0.5 32C0.5 49.397 14.603 63.5 32 63.5Z" fill="url(#paint0_linear_14_28)"/>
<path d="M32 49.5C25.5 49.5 19.5 49.5 13.5 49.5C12.5 44.8 16 40.5 23.3 37.6C19.9 36.8 17.1 35.4 15.2 32.5C12.7 28.6 12.3 24.6 14.4 20.4C16.4 16.3 19.8 14.2 24.4 13.9C26.8 13.8 29.2 13.9 32 13.9C30.7 16.1 29.7 17.9 28.6 19.7C27.5 21.6 26.5 23.5 25.3 25.6C29.9 25.6 34.3 25.6 39 25.6C36.8 21.7 34.6 18 32.4 14.1C38.7 14.1 44.8 14.1 50.9 14.1C51.7 18.7 48.4 22.9 41.3 25.8C42 26 42.4 26.2 42.9 26.4C48.5 28.2 51.9 33.7 51 39.7C50.2 45.3 45.3 49.6 39.5 49.7C37.2 49.7 35 49.7 32.3 49.7C34.6 45.6 36.8 41.9 39 37.9C34.4 37.9 30 37.9 25.3 37.9C27.5 41.6 29.6 45.4 32 49.5Z" fill="white"/>
</g>
<defs>
<linearGradient id="paint0_linear_14_28" x1="16.2474" y1="59.2844" x2="47.7526" y2="4.7156" gradientUnits="userSpaceOnUse">
<stop offset="0.0311572" stop-color="#488FCD"/>
<stop offset="0.9442" stop-color="#5FCAE7"/>
</linearGradient>
<clipPath id="clip0_14_28">
<rect width="64" height="64" fill="white"/>
</clipPath>
</defs>
</svg>
