<svg width="32" height="32" viewBox="0 0 32 32" fill="none" xmlns="http://www.w3.org/2000/svg">
<path d="M31.2807 5.5288C31.2807 3.6788 30.5807 3.1088 29.1007 3.3988C27.9907 3.6188 26.9507 4.0388 25.9107 4.4388C19.3107 7.0288 12.8307 9.8788 6.34074 12.6988C4.73074 13.3988 3.08074 14.0188 1.53074 14.8588C1.11074 15.0888 0.680742 15.3788 0.710742 15.9588C0.740742 16.5388 1.21074 16.7588 1.67074 16.9288C3.19074 17.5188 4.76074 17.9388 6.32074 18.3888C8.13074 18.9188 9.71074 18.5588 11.2507 17.5088C14.6607 15.1688 18.1207 12.8988 21.5707 10.5988C22.0307 10.2988 22.5007 10.0188 22.9807 9.7388C23.2007 9.6088 23.4507 9.5788 23.6407 9.8088C23.8507 10.0588 23.7707 10.3088 23.5807 10.5188C23.3607 10.7688 23.1407 11.0088 22.9107 11.2488C20.3807 13.8288 17.6507 16.1988 15.0807 18.7388C13.5007 20.2888 13.5807 21.0888 15.4107 22.3188C17.9107 24.0088 20.4207 25.6888 22.9107 27.3888C23.6607 27.8988 24.3907 28.4288 25.3007 28.6088C26.3207 28.8188 27.0007 28.5188 27.4907 27.5888C27.8307 26.9388 27.9907 26.2288 28.1207 25.5188C29.0307 20.5888 29.8607 15.6388 30.6007 10.6888C30.8707 8.8588 31.0907 7.0288 31.2907 5.5288H31.2807Z" fill="white"/>
</svg>
