<?xml version="1.0" encoding="UTF-8"?>
<svg id="_Слой_2" data-name="Слой 2" xmlns="http://www.w3.org/2000/svg" viewBox="0 0 40.84 40.84">
  <defs>
    <style>
      .cls-1 {
        fill: #fff;
      }

      .cls-2 {
        fill: #f7931a;
      }
    </style>
  </defs>
  <g id="Layer_1" data-name="Layer 1">
    <g>
      <path class="cls-2" d="M40.23,25.36c-2.73,10.94-13.81,17.6-24.75,14.87C4.54,37.5-2.12,26.42,.61,15.48,3.34,4.54,14.42-2.12,25.36,.61c10.94,2.73,17.6,13.81,14.87,24.75h0Z"/>
      <path class="cls-1" d="M29.43,17.51c.41-2.72-1.66-4.18-4.49-5.15l.92-3.68-2.24-.56-.9,3.58c-.59-.15-1.19-.29-1.79-.42l.9-3.61-2.24-.56-.92,3.68-4.52-1.12-.6,2.39s1.66,.38,1.63,.4c.91,.23,1.07,.83,1.04,1.3l-2.51,10.08c-.11,.28-.39,.69-1.03,.53,.02,.03-1.63-.41-1.63-.41l-1.11,2.57,4.51,1.14-.93,3.72,2.24,.56,.92-3.68c.61,.17,1.2,.32,1.79,.46l-.92,3.67,2.24,.56,.93-3.72c3.82,.72,6.7,.43,7.9-3.02,.97-2.78-.05-4.39-2.06-5.43,1.46-.34,2.57-1.3,2.86-3.29m-5.12,7.18c-.69,2.78-5.38,1.28-6.9,.9l1.23-4.93c1.52,.38,6.39,1.13,5.67,4.03m.69-7.22c-.63,2.53-4.53,1.25-5.8,.93l1.11-4.48c1.27,.32,5.34,.9,4.68,3.54"/>
    </g>
  </g>
</svg>